<svg xmlns="http://www.w3.org/2000/svg" width="180" height="180" viewBox="0 0 180 180">
  <rect width="180" height="180" rx="40" fill="#FF0000"/>
  <path d="M90 30C90 30 40 44 40 78V114C40 131 60 148 90 148C120 148 140 131 140 114V78C140 44 90 30 90 30ZM125 114C125 123.941 109.33 132 90 132C70.67 132 55 123.941 55 114V78C55 54 90 45 90 45C90 45 125 54 125 78V114Z" fill="white"/>
  <path d="M90 45C90 45 55 54 55 78V114C55 123.941 70.67 132 90 132C109.33 132 125 123.941 125 114V78C125 54 90 45 90 45Z" fill="white" fill-opacity="0.3"/>
</svg>
