<svg xmlns="http://www.w3.org/2000/svg" width="32" height="32" viewBox="0 0 32 32">
  <rect width="32" height="32" rx="6" fill="#FF0000"/>
  <path d="M16 6C16 6 8 8.5 8 14.5V20.5C8 23.5 11.5 26 16 26C20.5 26 24 23.5 24 20.5V14.5C24 8.5 16 6 16 6ZM22 20.5C22 22.433 19.314 24 16 24C12.686 24 10 22.433 10 20.5V14.5C10 10.5 16 8.5 16 8.5C16 8.5 22 10.5 22 14.5V20.5Z" fill="white"/>
  <path d="M16 8.5C16 8.5 10 10.5 10 14.5V20.5C10 22.433 12.686 24 16 24C19.314 24 22 22.433 22 20.5V14.5C22 10.5 16 8.5 16 8.5Z" fill="white" fill-opacity="0.3"/>
</svg>
